<svg xmlns="http://www.w3.org/2000/svg" width="75.831" height="67.392" viewBox="0 0 75.831 67.392">
  <path id="Icon_awesome-edit" data-name="Icon awesome-edit" d="M53,10.947,64.878,22.822a1.287,1.287,0,0,1,0,1.817L36.125,53.392,23.908,54.748a2.561,2.561,0,0,1-2.831-2.831L22.433,39.7,51.186,10.947A1.287,1.287,0,0,1,53,10.947ZM74.33,7.932,67.906,1.508a5.149,5.149,0,0,0-7.267,0l-4.66,4.66a1.287,1.287,0,0,0,0,1.817L67.853,19.86a1.287,1.287,0,0,0,1.817,0l4.66-4.66a5.149,5.149,0,0,0,0-7.267ZM50.554,45.572v13.4H8.426V16.845H38.679a1.619,1.619,0,0,0,1.119-.461l5.266-5.266a1.58,1.58,0,0,0-1.119-2.7H6.319A6.321,6.321,0,0,0,0,14.739V61.08A6.321,6.321,0,0,0,6.319,67.4H52.661A6.321,6.321,0,0,0,58.98,61.08V40.306a1.583,1.583,0,0,0-2.7-1.119l-5.266,5.266A1.619,1.619,0,0,0,50.554,45.572Z" transform="translate(0 -0.007)" fill="#8b842b"/>
</svg>
