<svg xmlns="http://www.w3.org/2000/svg" width="66.331" height="66.331" viewBox="0 0 66.331 66.331">
  <path id="Icon_awesome-info-circle" data-name="Icon awesome-info-circle" d="M33.728.563A33.166,33.166,0,1,0,66.894,33.728,33.171,33.171,0,0,0,33.728.563Zm0,14.711a5.617,5.617,0,1,1-5.617,5.617A5.617,5.617,0,0,1,33.728,15.273Zm7.489,33.968a1.6,1.6,0,0,1-1.6,1.6H27.844a1.6,1.6,0,0,1-1.6-1.6v-3.21a1.6,1.6,0,0,1,1.6-1.6h1.6V35.868h-1.6a1.6,1.6,0,0,1-1.6-1.6v-3.21a1.6,1.6,0,0,1,1.6-1.6H36.4a1.6,1.6,0,0,1,1.6,1.6V44.427h1.6a1.6,1.6,0,0,1,1.6,1.6Z" transform="translate(-0.563 -0.563)" fill="#8b842b"/>
</svg>
