<svg xmlns="http://www.w3.org/2000/svg" width="59.759" height="59.759" viewBox="0 0 59.759 59.759">
  <path id="Icon_metro-plus" data-name="PlusIcon" d="M60.462,24.338H39.92V3.8a1.868,1.868,0,0,0-1.867-1.867h-11.2A1.868,1.868,0,0,0,24.98,3.8V24.338H4.438a1.868,1.868,0,0,0-1.867,1.867v11.2a1.868,1.868,0,0,0,1.867,1.867H24.98V59.82a1.868,1.868,0,0,0,1.867,1.867h11.2A1.868,1.868,0,0,0,39.92,59.82V39.278H60.462A1.868,1.868,0,0,0,62.33,37.41v-11.2A1.868,1.868,0,0,0,60.462,24.338Z" transform="translate(-2.571 -1.928)" fill="#8b842b"/>
</svg>
