<svg xmlns="http://www.w3.org/2000/svg" width="40.828" height="46.66" viewBox="0 0 40.828 46.66">
  <path id="Icon_metro-file-text" data-name="Icon metro-file-text" d="M43.4,12.366a41.323,41.323,0,0,0-3.972-4.543,41.327,41.327,0,0,0-4.543-3.972c-2.35-1.723-3.49-1.923-4.143-1.923H8.144A3.649,3.649,0,0,0,4.5,5.573V44.943a3.649,3.649,0,0,0,3.645,3.645H41.681a3.649,3.649,0,0,0,3.645-3.645V16.509c0-.653-.2-1.793-1.923-4.143ZM37.369,9.885a39.773,39.773,0,0,1,3.307,3.708H33.661V6.578a39.732,39.732,0,0,1,3.708,3.307ZM42.41,44.943a.739.739,0,0,1-.729.729H8.144a.739.739,0,0,1-.729-.729V5.573a.739.739,0,0,1,.729-.729h22.6V15.051A1.458,1.458,0,0,0,32.2,16.509H42.41Zm-7.291-5.1H14.706a1.458,1.458,0,1,1,0-2.916H35.119a1.458,1.458,0,0,1,0,2.916Zm0-5.833H14.706a1.458,1.458,0,1,1,0-2.916H35.119a1.458,1.458,0,0,1,0,2.916Zm0-5.833H14.706a1.458,1.458,0,1,1,0-2.916H35.119a1.458,1.458,0,0,1,0,2.916Z" transform="translate(-4.499 -1.928)" fill="#fff78b"/>
</svg>
